<?xml version="1.0" standalone="no"?>
<!DOCTYPE svg PUBLIC "-//W3C//DTD SVG 20010904//EN"
 "http://www.w3.org/TR/2001/REC-SVG-20010904/DTD/svg10.dtd">
<svg version="1.0" xmlns="http://www.w3.org/2000/svg"
 width="20px" height="20px" viewBox="0 0 88.000000 88.000000"
 preserveAspectRatio="xMidYMid meet">

<g transform="translate(0.000000,88.000000) scale(0.100000,-0.100000)"
fill="#000000" stroke="none">
<path d="M105 863 c-44 -23 -65 -44 -86 -85 -17 -34 -19 -63 -19 -338 0 -275
2 -304 19 -338 37 -73 92 -102 190 -102 60 0 72 3 81 20 8 15 6 24 -10 40 -16
16 -33 20 -81 20 -54 0 -64 3 -90 29 l-29 29 0 302 0 302 29 29 c26 26 36 29
90 29 48 0 65 4 81 20 16 16 18 25 10 40 -9 17 -21 20 -83 20 -46 -1 -83 -7
-102 -17z"/>
<path d="M572 688 c-23 -23 -11 -44 68 -123 l80 -80 -296 -5 c-269 -5 -298 -7
-308 -23 -8 -12 -8 -22 0 -35 10 -15 39 -17 308 -22 l296 -5 -80 -80 c-80 -80
-92 -102 -65 -125 24 -20 49 -3 138 89 92 95 106 126 92 198 -5 29 -27 57 -99
130 -91 92 -111 104 -134 81z"/>
</g>
</svg>
