<svg width="100" height="61" viewBox="0 0 90 51" fill="none" xmlns="http://www.w3.org/2000/svg">
<g clip-path="url(#clip0_2_2)">
<path d="M4.22999 17.05C4.22999 12.61 4.22999 10.85 4.17999 9.72H7.95999C8.05999 10.39 8.09999 11.66 8.09999 12.72C9.08999 10.64 10.84 9.31 13.55 9.31C16.13 9.31 17.85 10.43 18.59 12.88C19.49 10.96 21.32 9.31 24.53 9.31C27.65 9.31 30.5 10.84 30.5 16.45V34.15H26.61V17.11C26.61 14.74 25.91 12.76 23.32 12.76C20.37 12.76 19.36 15.32 19.36 18.55V34.16H15.45V17.21C15.45 14.34 14.49 12.79 12.22 12.79C9.42999 12.79 8.15999 15.23 8.15999 18.86V34.16H4.22999V17.05Z" fill="#000000"/>
<path d="M40.92 9.72H44.86V34.16H40.92V9.72ZM40.95 0H44.89V5.15H40.95V0Z" fill="#000000"/>
<path d="M57.38 27.05C57.51 29.48 58.78 31.43 61.48 31.43C63.99 31.43 65.2 29.94 65.2 27.82C65.2 25.45 64 24.33 60.86 23.12C55.68 21.15 54.21 19.3 54.21 15.86C54.21 12.58 56.24 9.3 61.39 9.3C67.03 9.3 68.59 13.14 68.62 16.38H64.79C64.74 15.28 64.51 12.46 61.28 12.46C59.12 12.46 58.12 13.8 58.12 15.62C58.12 17.5 58.98 18.41 62.28 19.67C67.08 21.51 69.15 23.28 69.15 27.42C69.15 31.94 66.32 34.59 61.3 34.59C56.1 34.59 53.59 31.47 53.49 27.05H57.38Z" fill="#000000"/>
<path d="M78.03 34.16V0H81.97V34.16H78.03Z" fill="#000000"/>
<path d="M0.5 40.16H2.01L3.24 43.58C3.41 44.08 3.7 44.91 3.86 45.44H3.89C4.04 44.94 4.42 43.86 4.69 43.11L5.78 40.15H7.31L7.79 46.93H6.61L6.46 43.69C6.42 42.96 6.36 42.09 6.33 41.27H6.29C6.11 41.89 5.93 42.43 5.55 43.47L4.25 46.89H3.35L2.15 43.54C1.94 42.9 1.65 41.92 1.48 41.28H1.41C1.38 42.08 1.34 42.97 1.3 43.72L1.13 46.93H0L0.5 40.16Z" fill="#000000"/>
<path d="M9.76001 40.16L11.24 44.17C11.39 44.62 11.56 45.15 11.67 45.56H11.7C11.83 45.15 11.97 44.64 12.13 44.15L13.47 40.17H14.77L12.94 45C12.06 47.33 11.46 48.52 10.61 49.24C10.01 49.77 9.41001 49.98 9.10001 50.04L8.79001 49C9.10001 48.9 9.50001 48.71 9.87001 48.4C10.21 48.13 10.63 47.66 10.91 47.03C10.97 46.9 11.01 46.81 11.01 46.74C11.01 46.67 10.98 46.57 10.93 46.42L8.42001 40.17H9.76001V40.16Z" fill="#000000"/>
<path d="M16.53 43.01H17.12C18.16 43.01 18.86 42.53 18.86 41.9C18.86 41.3 18.31 40.92 17.54 40.92C16.99 40.92 16.38 41.1 15.9 41.4L15.59 40.64C16.28 40.22 17.06 40.02 17.84 40.02C18.88 40.02 20.14 40.48 20.14 41.8C20.14 42.64 19.37 43.19 18.61 43.34V43.37C19.62 43.45 20.46 44.07 20.46 45.06C20.46 46.53 18.96 47.08 17.53 47.08C16.73 47.08 15.93 46.87 15.33 46.53L15.65 45.7C16.14 45.97 16.8 46.16 17.44 46.16C18.46 46.16 19.11 45.67 19.11 45C19.11 44.09 18.16 43.84 17.13 43.84H16.51V43.01H16.53Z" fill="#000000"/>
<path d="M23.2 40.16V42.47C23.47 42.41 23.86 42.39 24.31 42.39C25.77 42.39 27.24 42.99 27.24 44.66C27.24 45.37 26.97 45.86 26.54 46.23C25.8 46.86 24.71 47.01 23.81 47.01C23.12 47.01 22.49 46.97 21.99 46.91V40.16H23.2ZM23.2 46.09C23.44 46.12 23.7 46.15 24.05 46.15C24.99 46.15 26.01 45.76 26.01 44.71C26.01 43.62 25.03 43.28 24.1 43.28C23.75 43.28 23.44 43.31 23.19 43.35V46.09H23.2ZM29.31 40.16V46.94H28.09V40.16H29.31Z" fill="#000000"/>
<path d="M32.54 40.16V43.1H32.83L35.38 40.16H36.88L33.92 43.23C35.01 43.34 35.67 44.07 36.2 45.29C36.38 45.74 36.62 46.4 36.93 46.94H35.64C35.46 46.65 35.22 46.11 35.01 45.55C34.55 44.46 33.92 43.95 32.77 43.95H32.53V46.93H31.31V40.15H32.54V40.16Z" fill="#000000"/>
<path d="M41.92 46.94L41.82 46.09H41.78C41.4 46.62 40.67 47.1 39.71 47.1C38.34 47.1 37.64 46.13 37.64 45.15C37.64 43.51 39.1 42.61 41.72 42.63V42.49C41.72 41.93 41.57 40.92 40.18 40.92C39.55 40.92 38.89 41.12 38.41 41.42L38.13 40.61C38.69 40.25 39.5 40.01 40.36 40.01C42.43 40.01 42.94 41.42 42.94 42.78V45.32C42.94 45.91 42.97 46.48 43.05 46.94H41.92ZM41.74 43.48C40.4 43.45 38.87 43.69 38.87 45.01C38.87 45.81 39.4 46.19 40.03 46.19C40.91 46.19 41.47 45.63 41.67 45.06C41.71 44.93 41.74 44.79 41.74 44.67V43.48Z" fill="#000000"/>
<path d="M53.46 40.16V46.94H52.23V41.14H49.08V46.94H47.86V40.16H53.46Z" fill="#000000"/>
<path d="M55.45 42.38C55.45 41.51 55.42 40.81 55.39 40.17H56.5L56.56 41.33H56.59C57.09 40.5 57.89 40.01 59 40.01C60.64 40.01 61.87 41.4 61.87 43.46C61.87 45.9 60.39 47.1 58.79 47.1C57.89 47.1 57.11 46.71 56.7 46.04H56.67V49.72H55.45V42.38ZM56.67 44.18C56.67 44.36 56.7 44.53 56.73 44.68C56.95 45.53 57.7 46.12 58.58 46.12C59.88 46.12 60.64 45.06 60.64 43.5C60.64 42.14 59.93 40.98 58.62 40.98C57.78 40.98 57 41.58 56.76 42.51C56.72 42.66 56.68 42.85 56.68 43.01V44.18H56.67Z" fill="#000000"/>
<path d="M69.55 43.5C69.55 46.01 67.81 47.1 66.17 47.1C64.34 47.1 62.92 45.76 62.92 43.61C62.92 41.34 64.4 40.01 66.28 40.01C68.24 40.01 69.55 41.42 69.55 43.5ZM64.18 43.57C64.18 45.05 65.03 46.18 66.24 46.18C67.42 46.18 68.3 45.07 68.3 43.55C68.3 42.4 67.73 40.94 66.27 40.94C64.81 40.93 64.18 42.28 64.18 43.57Z" fill="#000000"/>
<path d="M75.94 46.69C75.62 46.86 74.9 47.08 73.99 47.08C71.94 47.08 70.61 45.69 70.61 43.62C70.61 41.53 72.04 40.02 74.25 40.02C74.98 40.02 75.62 40.2 75.96 40.37L75.68 41.32C75.39 41.16 74.93 41 74.26 41C72.71 41 71.86 42.15 71.86 43.56C71.86 45.13 72.87 46.1 74.21 46.1C74.91 46.1 75.37 45.92 75.72 45.76L75.94 46.69Z" fill="#000000"/>
<path d="M82.18 40.16V41.14H80.06V46.94H78.84V41.14H76.73V40.16H82.18Z" fill="#000000"/>
<path d="M89.21 43.5C89.21 46.01 87.47 47.1 85.83 47.1C84 47.1 82.58 45.76 82.58 43.61C82.58 41.34 84.06 40.01 85.94 40.01C87.89 40.01 89.21 41.42 89.21 43.5ZM83.83 43.57C83.83 45.05 84.68 46.18 85.89 46.18C87.07 46.18 87.95 45.07 87.95 43.55C87.95 42.4 87.38 40.94 85.92 40.94C84.46 40.93 83.83 42.28 83.83 43.57Z" fill="#000000"/>
</g>
<defs>
<clipPath id="clip0_2_2">
<rect width="89.21" height="50.04" fill="white"/>
</clipPath>
</defs>
</svg>
